<?xml version="1.0" standalone="no"?>
<!DOCTYPE svg PUBLIC "-//W3C//DTD SVG 20010904//EN"
 "http://www.w3.org/TR/2001/REC-SVG-20010904/DTD/svg10.dtd">
<svg version="1.0" xmlns="http://www.w3.org/2000/svg"
 width="2560.000000pt" height="796.000000pt" viewBox="0 0 2560.000000 796.000000"
 preserveAspectRatio="xMidYMid meet">

<g transform="translate(0.000000,796.000000) scale(0.100000,-0.100000)"
fill="#000000" stroke="none">
<path d="M3364 6075 c-33 -7 -90 -24 -125 -38 -35 -14 -89 -33 -119 -42 -75
-24 -108 -42 -152 -81 -21 -18 -60 -45 -87 -58 -81 -42 -292 -186 -351 -241
-30 -28 -83 -73 -118 -99 -34 -26 -75 -63 -90 -82 -15 -20 -65 -65 -112 -102
-144 -114 -232 -194 -261 -241 -51 -80 -35 -81 78 -7 l82 53 -6 -28 c-8 -40 7
-37 71 16 l55 45 -6 -30 c-3 -17 -3 -30 1 -30 3 0 30 14 59 30 60 34 69 36 61
16 -11 -29 16 -25 60 8 28 22 46 30 49 23 5 -15 77 17 77 35 0 6 3 8 7 5 3 -4
17 0 30 9 23 15 24 15 14 -5 -30 -54 -2 -54 82 2 50 34 66 40 73 30 7 -10 19
-7 59 17 28 16 60 37 72 46 20 15 21 14 16 -5 -7 -28 5 -26 59 8 25 16 48 27
51 24 6 -6 65 24 91 46 14 12 20 13 23 4 3 -7 13 -13 24 -13 13 0 19 -7 19
-23 0 -13 6 -32 14 -43 12 -15 18 -17 33 -8 14 9 20 8 30 -5 10 -14 16 -11 49
22 32 32 39 35 47 22 7 -13 12 -14 23 -4 8 6 17 9 20 6 3 -3 19 -1 35 3 22 7
29 5 29 -5 0 -7 6 -20 13 -27 8 -7 19 -23 26 -36 14 -26 31 -29 32 -4 0 14 2
14 8 -3 12 -28 48 -58 60 -50 6 3 12 18 12 33 1 28 4 22 14 -41 6 -36 7 -38
24 -23 10 9 20 16 23 16 3 0 3 -29 1 -64 -4 -45 -1 -80 11 -115 18 -55 21 -85
7 -77 -8 5 -51 -68 -51 -86 0 -4 22 -14 49 -23 44 -14 49 -19 55 -53 3 -20 6
-61 6 -91 0 -53 0 -53 -27 -47 -16 3 -57 9 -93 12 l-66 7 -11 -38 c-10 -31 -9
-42 4 -61 19 -29 43 -31 50 -4 5 19 6 20 19 3 12 -16 13 -15 8 10 -2 15 0 27
6 27 5 0 13 -12 17 -27 l6 -28 13 30 c11 26 13 27 14 8 0 -13 5 -23 11 -23 7
0 9 10 5 28 -6 26 -6 26 9 8 16 -22 16 -22 32 14 l12 25 0 -27 c1 -21 6 -28
21 -28 15 0 20 7 20 25 0 14 -3 25 -8 25 -4 0 -6 35 -5 78 1 42 3 92 3 111 0
33 1 34 15 15 8 -10 14 -23 15 -29 0 -5 -5 -3 -10 5 -7 11 -10 2 -10 -33 0
-33 9 -65 30 -107 31 -60 46 -73 56 -45 8 19 24 20 24 2 0 -8 9 -22 20 -32
l21 -19 -23 -13 c-83 -45 -262 -84 -393 -84 -114 -1 -174 11 -262 53 -64 30
-77 43 -45 51 10 2 3 6 -18 11 -20 4 -63 1 -100 -7 -58 -12 -65 -16 -65 -38 0
-20 4 -23 26 -21 l26 3 7 -298 c4 -164 9 -313 13 -330 l5 -33 883 0 883 0 6
28 c3 15 9 163 13 330 l6 302 29 0 c25 0 29 4 26 22 -2 18 -14 24 -67 36 -39
8 -77 11 -100 6 -22 -4 -29 -9 -18 -11 28 -7 20 -18 -30 -46 -150 -81 -389
-79 -617 4 l-81 29 -17 -22 c-16 -20 -16 -17 2 22 21 47 26 134 10 160 -7 12
-12 7 -25 -22 -8 -21 -15 -53 -15 -72 0 -48 -14 -53 -39 -13 -28 46 -68 80
-85 74 -8 -3 -16 2 -19 14 -9 34 9 29 53 -16 24 -24 47 -42 51 -40 4 3 12 27
19 55 6 27 17 48 23 47 13 -2 36 57 36 97 1 16 4 26 8 23 3 -4 5 -36 4 -72 -3
-71 14 -138 32 -132 14 4 11 124 -3 162 -9 23 -8 24 18 13 15 -6 36 -10 48
-10 12 1 31 -9 44 -23 18 -20 25 -22 41 -12 18 11 18 12 -2 33 -16 17 -21 39
-24 98 -2 42 -11 91 -19 108 -15 30 -15 39 9 146 3 12 12 22 20 22 8 0 20 10
27 23 l12 22 6 -25 c8 -35 42 -38 68 -6 24 31 32 33 32 6 0 -11 3 -20 8 -20
16 0 52 32 52 46 0 8 5 14 10 14 6 0 10 -5 10 -11 0 -8 5 -8 15 1 8 7 15 18
15 25 0 7 7 15 15 19 8 3 15 14 15 25 0 17 4 19 32 10 17 -5 34 -7 36 -4 3 3
12 -1 20 -7 11 -10 16 -8 24 6 9 16 13 14 45 -19 32 -33 37 -35 52 -21 13 12
20 13 28 5 19 -19 40 -3 47 35 4 21 13 36 21 36 7 0 15 5 17 12 3 8 21 1 53
-20 27 -18 55 -30 62 -28 7 3 34 -8 60 -24 54 -34 60 -36 65 -15 2 13 11 10
44 -14 55 -41 92 -55 96 -36 2 11 21 2 67 -30 36 -25 73 -45 83 -45 21 0 22 4
8 31 -14 25 -5 24 32 -2 28 -21 30 -21 43 -3 13 18 14 17 15 -8 0 -18 5 -28
15 -28 8 0 15 5 15 11 0 6 19 -3 42 -20 46 -34 65 -39 70 -16 2 11 15 8 62
-16 32 -16 61 -28 64 -25 3 3 0 18 -7 33 -10 21 -10 24 1 16 108 -85 137 -97
118 -48 -8 22 0 18 76 -30 86 -56 104 -63 104 -45 0 40 -114 160 -255 270 -44
34 -105 88 -137 120 -31 32 -89 83 -130 113 -40 30 -86 69 -103 87 -33 36
-271 197 -345 235 -27 13 -69 42 -94 64 -34 30 -71 49 -139 70 -51 17 -126 42
-167 57 -131 46 -272 43 -372 -7 -21 -11 -42 -28 -48 -38 -16 -31 -12 -119 10
-201 11 -41 20 -88 20 -103 0 -33 -40 -77 -70 -77 -22 0 -27 -24 -7 -37 26
-17 36 -58 23 -97 -13 -38 -49 -79 -60 -69 -3 4 -6 1 -6 -6 0 -7 -5 -9 -11 -5
-6 3 -15 0 -20 -7 -7 -11 -9 -11 -9 -1 0 8 -7 6 -21 -7 -12 -11 -30 -18 -40
-16 -10 2 -19 -2 -19 -8 0 -7 -4 -6 -10 3 -5 8 -10 11 -10 6 0 -4 -19 9 -42
30 -42 37 -60 34 -38 -6 6 -12 9 -24 7 -27 -3 -3 -15 18 -27 46 -26 60 -50 85
-50 52 0 -12 -4 -19 -10 -16 -10 6 -14 75 -4 75 3 0 26 -16 51 -35 25 -19 50
-35 54 -35 21 0 6 31 -37 79 -26 29 -45 53 -43 55 2 2 16 6 32 10 22 5 27 3
27 -12 0 -19 49 -72 67 -72 22 0 -4 83 -34 107 -22 19 -29 20 -31 8 -4 -17
-62 -21 -62 -4 0 5 -15 23 -32 40 l-32 29 42 0 c35 0 42 -3 42 -20 0 -11 5
-20 10 -20 14 0 12 12 -6 38 -8 12 -22 22 -31 22 -9 0 -27 10 -41 22 l-23 23
-17 -22 c-13 -17 -21 -20 -32 -13 -34 22 -58 12 -67 -27 -10 -44 -38 -56 -45
-21 -6 34 10 88 28 88 8 0 17 7 21 16 4 10 16 14 37 13 17 -1 41 1 54 4 68 21
68 21 54 5 -10 -13 -10 -17 4 -22 20 -8 34 1 34 20 0 9 10 14 29 14 35 0 48
15 30 36 -8 10 -21 13 -40 9 -15 -4 -50 -7 -76 -9 l-48 -2 3 62 c3 56 1 65
-25 92 -58 62 -203 87 -339 57z m-287 -205 c-6 -27 -4 -30 18 -30 13 0 35 4
49 10 17 6 26 6 26 0 0 -6 11 -10 24 -10 14 0 36 4 50 10 17 6 26 6 26 0 0 -6
7 -10 16 -10 12 0 9 -6 -10 -21 -15 -12 -31 -32 -36 -44 -9 -23 -56 -39 -75
-26 -14 10 -95 5 -127 -8 -17 -6 -28 -7 -28 -1 0 5 -16 2 -35 -7 -53 -25 -55
-6 -6 38 24 22 36 36 25 32 -12 -4 -6 8 20 38 37 41 56 58 65 59 2 0 1 -13 -2
-30z m-68 17 c-2 -1 -13 -9 -24 -17 -19 -14 -19 -14 -6 3 7 9 18 17 24 17 6 0
8 -1 6 -3z m1974 -153 c11 -19 -10 -18 -48 2 -18 9 -31 11 -33 5 -2 -7 -12 -7
-30 0 -31 12 -103 16 -119 6 -22 -14 -69 4 -81 31 -6 15 -24 35 -39 44 -27 17
-27 17 -5 18 12 0 22 5 22 10 0 7 6 7 19 0 26 -13 68 -13 73 1 3 9 9 9 25 0
12 -6 34 -11 49 -11 21 0 25 4 21 20 -3 13 20 -3 66 -46 40 -36 76 -72 80 -80z
m-1234 -74 c41 -28 42 -30 18 -30 -15 0 -27 5 -27 10 0 6 -11 15 -25 20 -14 5
-25 14 -25 20 0 16 12 12 59 -20z m-46 -570 c-8 -30 -21 -34 -15 -5 2 14 8 25
12 25 5 0 6 -9 3 -20z m290 -578 c16 8 22 7 29 -6 5 -9 16 -16 24 -16 8 0 12
-4 9 -10 -3 -5 6 -25 20 -44 34 -44 41 -92 21 -139 -12 -30 -20 -37 -42 -37
l-27 0 7 61 c7 71 -16 139 -55 160 -21 11 -26 8 -57 -27 -33 -38 -34 -40 -30
-116 5 -76 4 -78 -18 -78 -30 0 -54 45 -54 101 0 36 6 48 39 79 30 28 36 41
29 53 -11 20 -5 21 24 6 17 -9 23 -8 31 6 6 12 12 14 20 6 7 -7 16 -7 30 1z
m-265 -262 c46 -28 72 -76 72 -132 0 -43 2 -47 28 -50 25 -3 27 -6 25 -45 -1
-37 1 -43 18 -43 11 0 22 -7 26 -16 7 -20 -18 -38 -30 -21 -7 9 -10 9 -14 0
-2 -7 -12 -13 -22 -13 -9 0 -23 6 -30 13 -10 10 -14 8 -22 -6 -6 -10 -17 -16
-27 -13 -9 3 -24 1 -31 -4 -19 -11 -51 5 -51 26 0 11 -6 13 -20 9 -24 -8 -103
53 -126 96 -64 125 86 271 204 199z m620 6 c51 -27 84 -71 89 -120 7 -60 -11
-102 -60 -137 -49 -35 -70 -37 -85 -5 -6 14 -23 33 -37 42 -21 14 -30 15 -52
5 -21 -10 -27 -9 -38 6 -61 82 17 222 123 223 18 0 45 -6 60 -14z m-218 -35
c-11 -39 -29 -72 -52 -98 l-20 -22 33 -8 c30 -8 34 -14 37 -46 3 -31 0 -37
-15 -37 -11 0 -28 -7 -39 -15 -26 -20 -54 -19 -55 3 0 11 -4 7 -10 -10 -15
-39 -39 -25 -39 22 0 34 -3 39 -30 45 -16 3 -41 15 -55 26 -30 24 -80 107 -71
117 14 13 101 -43 126 -82 21 -32 26 -35 28 -19 2 11 -4 39 -12 62 -13 38 -13
42 2 39 9 -2 24 -23 33 -48 14 -37 18 -42 24 -25 18 53 27 67 66 95 52 37 60
38 49 1z"/>
<path d="M3636 4227 c-17 -13 -17 -15 -2 -45 9 -17 16 -37 16 -45 0 -18 30
-27 88 -27 47 0 47 -1 28 43 -27 63 -93 101 -130 74z"/>
<path d="M3724 4048 c-4 -6 0 -16 9 -23 9 -7 14 -15 10 -18 -3 -4 2 -7 11 -7
11 0 15 5 12 13 -3 6 -9 20 -12 30 -7 20 -20 22 -30 5z"/>
<path d="M3675 4020 c3 -5 8 -10 11 -10 2 0 4 5 4 10 0 6 -5 10 -11 10 -5 0
-7 -4 -4 -10z"/>
<path d="M3810 4020 c0 -5 5 -10 10 -10 6 0 10 5 10 10 0 6 -4 10 -10 10 -5 0
-10 -4 -10 -10z"/>
<path d="M3735 3970 c-3 -5 -1 -10 4 -10 6 0 11 5 11 10 0 6 -2 10 -4 10 -3 0
-8 -4 -11 -10z"/>
<path d="M4215 4218 c-25 -20 -55 -73 -55 -98 0 -6 12 -10 27 -8 20 2 29 10
34 31 12 46 29 59 65 52 19 -3 35 -1 39 5 3 6 12 8 18 4 7 -3 1 4 -12 15 -30
27 -81 27 -116 -1z"/>
<path d="M13125 5975 c-22 -7 -57 -16 -77 -20 -42 -7 -52 -25 -14 -25 55 0 56
-3 56 -132 0 -100 -2 -119 -14 -115 -90 35 -148 32 -236 -13 -110 -55 -149
-106 -165 -212 -9 -57 16 -160 50 -204 35 -46 103 -76 174 -77 57 0 62 2 123
53 l63 53 3 -47 3 -46 95 0 c100 0 122 11 52 26 l-43 9 -3 383 c-2 296 -5 382
-15 381 -6 0 -30 -7 -52 -14z m-72 -351 l42 -30 3 -119 c3 -137 -9 -172 -69
-213 -28 -20 -43 -23 -87 -20 -67 6 -99 29 -134 98 -41 79 -35 193 13 261 47
66 155 77 232 23z"/>
<path d="M15180 5975 c-25 -7 -57 -16 -72 -19 -40 -9 -34 -24 10 -28 l37 -3 3
-330 c1 -181 0 -340 -3 -352 -4 -16 -14 -23 -37 -25 -17 -2 -33 -9 -36 -15 -3
-10 27 -13 127 -13 81 0 131 4 131 10 0 6 -12 10 -27 10 -60 0 -58 -15 -58
400 0 333 -2 380 -15 379 -8 -1 -35 -7 -60 -14z"/>
<path d="M8648 5953 c-163 -3 -198 -6 -198 -18 0 -9 16 -16 45 -21 25 -3 48
-10 50 -14 3 -5 6 -158 6 -341 0 -262 -3 -334 -13 -340 -7 -5 -30 -9 -50 -9
-27 0 -38 -4 -38 -15 0 -13 24 -15 155 -15 127 0 155 3 155 14 0 9 -15 17 -39
21 -22 4 -45 13 -51 20 -16 20 -10 649 7 666 7 7 45 14 85 16 62 4 80 1 118
-19 58 -30 83 -76 76 -137 -12 -92 -76 -146 -185 -157 -34 -4 -61 -10 -61 -13
0 -4 35 -52 78 -107 42 -55 109 -143 147 -197 l70 -97 78 0 c81 0 98 9 46 25
-23 8 -60 49 -159 180 l-128 170 49 16 c113 37 172 108 173 204 0 67 -27 112
-84 141 -57 28 -91 31 -332 27z"/>
<path d="M11620 5940 c0 -10 23 -17 70 -22 l25 -3 3 -405 c1 -223 0 -415 -3
-426 -2 -12 -18 -27 -35 -34 -29 -12 -44 -11 -82 5 -16 6 -18 1 -18 -40 l0
-47 38 7 c49 9 94 37 136 87 67 78 70 92 74 493 2 262 7 362 15 367 7 4 29 8
50 8 20 0 37 5 37 10 0 6 -58 10 -155 10 -95 0 -155 -4 -155 -10z"/>
<path d="M13440 5930 c-23 -23 -24 -33 -9 -63 22 -41 64 -50 92 -19 53 58 -28
137 -83 82z"/>
<path d="M14264 5924 c-37 -55 25 -117 80 -80 18 11 26 25 26 45 0 59 -75 84
-106 35z"/>
<path d="M3926 5773 c-13 -13 -6 -63 9 -63 10 0 15 10 15 29 0 30 -12 46 -24
34z"/>
<path d="M9406 5699 c-21 -5 -61 -21 -87 -36 -46 -24 -49 -29 -49 -65 0 -51
23 -50 50 2 22 43 47 55 112 53 65 -1 115 -48 120 -113 l3 -34 -60 -8 c-64 -8
-105 -20 -176 -50 -64 -27 -93 -79 -87 -154 5 -62 31 -97 86 -115 52 -17 96
-5 161 45 33 25 62 46 65 46 3 0 6 -18 6 -40 l0 -40 81 0 c60 0 80 3 76 13 -2
6 -12 13 -23 13 -10 1 -25 2 -31 3 -10 1 -13 46 -13 190 0 179 -1 190 -23 222
-39 59 -130 88 -211 68z m144 -307 c0 -72 -2 -80 -27 -105 -33 -31 -92 -57
-128 -57 -41 0 -75 41 -75 92 0 71 34 103 142 132 91 25 88 27 88 -62z"/>
<path d="M10066 5696 c-21 -8 -53 -28 -70 -45 -18 -17 -35 -31 -39 -31 -4 0
-7 18 -7 40 0 45 -5 47 -71 26 -24 -8 -61 -17 -81 -21 -21 -3 -38 -9 -38 -14
0 -4 17 -12 38 -17 l37 -9 3 -188 c1 -118 -1 -195 -8 -207 -8 -14 -21 -20 -45
-20 -21 0 -35 -5 -35 -12 0 -16 262 -16 268 0 2 6 -14 12 -35 14 l-38 3 -3
174 c-3 195 2 211 63 237 47 19 84 18 122 -6 46 -28 55 -69 51 -245 l-3 -150
-37 -3 c-21 -2 -38 -9 -38 -15 0 -15 260 -17 260 -2 1 6 -14 12 -32 15 l-33 5
-3 176 -2 176 32 31 c57 57 151 51 189 -12 17 -28 19 -51 19 -218 l0 -188 85
0 c50 0 85 4 85 10 0 6 -10 10 -22 10 -51 0 -53 6 -58 215 l-5 197 -37 33
c-75 69 -163 66 -251 -8 -39 -32 -51 -38 -58 -26 -5 8 -9 17 -9 21 0 4 -17 19
-37 32 -49 32 -107 40 -157 22z"/>
<path d="M10972 5700 c-23 -5 -65 -21 -92 -36 -47 -25 -50 -30 -50 -66 0 -49
14 -48 40 2 12 23 32 45 46 50 70 27 154 -3 180 -65 27 -64 23 -69 -69 -87
-46 -8 -111 -28 -145 -43 -51 -23 -65 -34 -82 -69 -51 -106 8 -206 122 -206
41 0 55 6 112 50 36 28 68 50 71 50 3 0 5 -20 5 -45 l0 -45 80 0 c66 0 80 3
80 16 0 10 -7 14 -22 13 -46 -6 -48 1 -48 195 0 173 -1 185 -23 216 -41 61
-117 87 -205 70z m138 -308 c0 -72 -2 -80 -27 -105 -33 -31 -92 -57 -128 -57
-41 0 -75 41 -75 92 0 71 34 103 142 132 91 25 88 27 88 -62z"/>
<path d="M13945 5699 c-22 -3 -75 -23 -118 -43 -75 -34 -79 -38 -105 -93 -22
-47 -26 -73 -27 -138 0 -71 4 -86 31 -135 22 -38 46 -64 79 -85 45 -28 56 -30
139 -30 71 0 100 4 131 20 45 23 64 63 24 50 -119 -37 -180 -28 -240 35 -43
45 -64 112 -63 200 1 121 53 174 161 168 77 -5 116 -30 121 -76 4 -44 28 -40
36 6 11 66 7 99 -11 107 -33 13 -118 21 -158 14z"/>
<path d="M14704 5696 c-28 -7 -67 -23 -87 -35 -32 -20 -37 -28 -37 -62 0 -50
12 -50 35 1 15 33 25 42 58 51 86 23 164 -21 174 -98 3 -24 4 -43 2 -43 -61
-6 -175 -36 -224 -58 -75 -36 -95 -66 -95 -144 0 -85 45 -128 133 -128 45 0
82 19 152 78 l30 25 5 -44 5 -44 78 -3 c65 -2 77 0 77 13 0 10 -7 16 -17 14
-44 -4 -43 -6 -43 179 0 165 -2 181 -22 222 -37 71 -124 101 -224 76z m156
-304 c0 -72 -2 -80 -27 -105 -33 -31 -92 -57 -128 -57 -41 0 -75 41 -75 92 0
71 34 103 142 132 91 25 88 27 88 -62z"/>
<path d="M12075 5684 c-27 -7 -60 -14 -72 -14 -39 0 -26 -28 16 -35 l39 -6 3
-183 c4 -196 9 -216 64 -252 27 -18 112 -24 157 -11 14 4 50 27 80 53 l53 45
3 -45 3 -46 90 0 c53 0 89 4 89 10 0 6 -16 10 -35 10 -54 0 -58 20 -53 273 l4
219 -30 -7 c-17 -3 -58 -12 -90 -19 -73 -15 -84 -34 -24 -38 l43 -3 3 -151 c3
-151 2 -152 -24 -183 -36 -44 -74 -61 -133 -61 -38 0 -56 6 -78 24 l-28 24 0
206 c0 231 7 214 -80 190z"/>
<path d="M13475 5689 c-16 -5 -52 -13 -79 -17 -64 -9 -70 -28 -11 -36 l45 -7
0 -200 c0 -151 -3 -201 -12 -203 -7 -3 -25 -7 -40 -10 -16 -4 -28 -11 -28 -16
0 -6 53 -10 135 -10 83 0 135 4 135 10 0 6 -15 10 -34 10 -58 0 -59 6 -54 260
6 254 10 240 -57 219z"/>
<path d="M14324 5694 c-6 -3 -39 -10 -74 -18 -35 -7 -65 -17 -67 -23 -2 -6 17
-14 42 -17 l45 -7 0 -192 c0 -106 -4 -197 -8 -204 -4 -6 -20 -13 -36 -15 -16
-1 -31 -9 -34 -15 -3 -10 27 -13 127 -13 81 0 131 4 131 10 0 6 -16 10 -35 10
-55 0 -58 14 -54 266 4 234 4 235 -37 218z"/>
<path d="M2897 4995 c-14 -20 -17 -40 -15 -102 l3 -78 30 -3 c27 -2 34 3 68
58 47 76 48 102 3 129 -43 27 -67 26 -89 -4z"/>
<path d="M4979 4997 c-19 -12 -35 -30 -37 -39 -2 -10 14 -47 35 -83 36 -62 40
-65 73 -63 l35 3 3 79 c3 70 0 81 -19 102 -28 30 -47 30 -90 1z"/>
<path d="M2180 4882 c0 -10 83 -107 91 -106 5 1 32 2 60 3 64 1 61 13 -19 61
-52 32 -132 57 -132 42z"/>
<path d="M2332 4873 l-22 -16 32 -23 c17 -13 34 -22 36 -19 7 6 -8 75 -16 74
-4 0 -17 -7 -30 -16z"/>
<path d="M5573 4855 c-14 -44 -7 -49 28 -24 35 25 36 33 5 47 -21 9 -24 7 -33
-23z"/>
<path d="M5725 4880 c-38 -6 -155 -74 -155 -90 0 -5 25 -10 56 -12 l57 -3 45
53 c25 29 43 54 41 55 -2 2 -22 0 -44 -3z"/>
<path d="M4446 4828 c-9 -12 -16 -34 -16 -48 0 -28 25 -70 42 -70 6 0 6 6 -2
15 -20 24 -16 96 6 112 15 11 16 13 1 13 -9 0 -23 -10 -31 -22z"/>
<path d="M4523 4832 c21 -23 22 -86 1 -106 -8 -9 -11 -16 -5 -16 16 0 41 42
41 70 0 28 -25 70 -42 70 -6 0 -4 -8 5 -18z"/>
<path d="M3466 4819 c-10 -34 -4 -91 9 -96 7 -2 9 12 7 36 -3 32 0 40 15 44
15 4 15 5 1 6 -9 0 -18 9 -21 19 -3 13 -6 11 -11 -9z"/>
<path d="M4710 4810 c0 -15 -7 -20 -25 -20 -50 0 -54 -92 -5 -108 12 -4 11 -1
-2 15 -22 24 -23 56 -2 74 21 18 35 -4 32 -51 -2 -19 2 -35 7 -35 6 0 11 33
13 73 2 45 -1 72 -8 72 -5 0 -10 -9 -10 -20z"/>
<path d="M3660 4805 c0 -8 -9 -15 -19 -15 -36 0 -43 -63 -8 -81 20 -11 21 -11
9 4 -16 19 -12 59 6 65 8 2 12 -9 12 -37 0 -23 5 -41 10 -41 6 0 10 27 10 60
0 33 -4 60 -10 60 -5 0 -10 -7 -10 -15z"/>
<path d="M4261 4788 c-12 -32 -13 -33 -23 -10 -12 24 -23 28 -33 12 -3 -5 -2
-10 3 -10 6 0 19 -14 30 -32 l21 -32 10 27 c18 47 24 77 14 77 -5 0 -14 -15
-22 -32z"/>
<path d="M3317 4790 c5 -20 15 -25 26 -13 8 7 -11 33 -23 33 -5 0 -6 -9 -3
-20z"/>
<path d="M3393 4800 c-18 -7 -23 -17 -23 -45 0 -24 4 -35 15 -35 10 0 15 11
15 35 0 24 5 35 15 35 8 0 15 5 15 10 0 12 -7 12 -37 0z"/>
<path d="M3566 4796 c6 -16 -10 -23 -19 -8 -2 4 -2 2 -1 -5 2 -6 -4 -14 -12
-17 -16 -6 -19 -32 -5 -40 5 -3 23 -3 40 0 30 6 32 9 29 43 -2 25 -8 37 -20
39 -13 2 -16 -1 -12 -12z m4 -40 c0 -16 -18 -31 -27 -22 -8 8 5 36 17 36 5 0
10 -6 10 -14z"/>
<path d="M3160 4735 c0 -56 2 -65 18 -65 27 0 62 42 62 73 0 29 -26 37 -48 15
-9 -9 -12 -6 -12 15 0 15 -4 27 -10 27 -6 0 -10 -28 -10 -65z m60 -8 c0 -23
-17 -47 -32 -47 -10 0 -11 54 -1 63 14 15 33 6 33 -16z"/>
<path d="M4603 4789 c-18 -6 -23 -16 -23 -44 0 -24 4 -35 15 -35 10 0 15 10
15 34 0 25 5 36 18 38 9 2 13 6 7 10 -5 3 -20 2 -32 -3z"/>
<path d="M3270 4769 c-14 -25 -6 -65 14 -72 8 -3 22 0 33 8 17 13 17 13 -1 12
-26 -3 -46 30 -26 43 11 7 11 10 2 10 -7 0 -10 5 -7 10 3 6 4 10 1 10 -3 0
-10 -9 -16 -21z"/>
<path d="M2997 4763 c-4 -3 -7 -35 -7 -70 0 -49 3 -63 15 -63 12 0 15 14 15
70 0 64 -6 81 -23 63z"/>
<path d="M4747 4763 c-13 -13 -7 -60 11 -75 32 -28 47 -32 24 -6 -14 15 -21
34 -19 48 5 31 27 38 34 11 5 -20 23 -30 23 -13 0 25 -56 52 -73 35z"/>
<path d="M17780 4756 c-19 -7 -56 -16 -82 -20 -62 -9 -67 -36 -8 -36 l40 0 0
-124 0 -125 -35 15 c-19 7 -60 14 -92 14 -51 0 -69 -6 -136 -44 -90 -51 -110
-73 -133 -140 -22 -65 -15 -175 14 -233 39 -75 123 -119 213 -111 40 4 58 13
103 51 30 26 59 47 65 47 6 0 11 -19 11 -45 l0 -45 90 0 c50 0 90 4 90 9 0 11
-25 21 -51 21 -38 0 -41 38 -37 418 3 252 1 362 -6 361 -6 0 -27 -6 -46 -13z
m-120 -337 c80 -36 80 -37 80 -173 0 -103 -3 -126 -20 -154 -28 -45 -76 -72
-131 -72 -63 0 -107 31 -142 100 -25 49 -28 63 -24 126 5 93 30 141 87 171 53
28 91 29 150 2z"/>
<path d="M18938 4755 c-20 -8 -58 -17 -83 -20 -59 -9 -63 -35 -5 -35 l40 0 -2
-352 -3 -353 -37 -3 c-25 -2 -38 -8 -38 -18 0 -11 24 -14 135 -14 111 0 135 3
135 14 0 10 -13 16 -37 18 l-38 3 -3 388 c-2 300 -5 387 -15 386 -6 0 -29 -7
-49 -14z"/>
<path d="M21473 4746 c-90 -22 -113 -46 -44 -46 48 0 51 -8 51 -144 0 -97 0
-98 -22 -92 -118 34 -175 25 -283 -42 -78 -49 -106 -98 -113 -197 -9 -146 59
-247 181 -270 61 -12 102 2 166 55 32 28 62 50 65 50 3 0 6 -22 6 -50 l0 -50
90 0 c50 0 90 4 90 9 0 11 -25 21 -50 21 -39 0 -42 27 -38 411 2 242 0 368 -7
367 -5 0 -47 -10 -92 -22z m-45 -343 l47 -29 3 -119 c2 -102 0 -125 -16 -155
-27 -51 -75 -80 -131 -80 -58 0 -101 26 -138 81 -25 38 -28 51 -28 128 0 109
21 155 86 189 56 30 113 25 177 -15z"/>
<path d="M8785 4736 c-126 -31 -228 -109 -281 -213 -27 -55 -29 -65 -29 -178
0 -111 2 -124 28 -176 31 -63 112 -146 175 -178 127 -65 307 -67 460 -6 28 12
42 24 47 42 8 34 1 39 -28 20 -84 -55 -266 -62 -370 -14 -70 32 -132 94 -165
166 -37 81 -43 213 -13 303 42 127 153 201 301 202 79 0 133 -13 188 -46 29
-18 32 -24 32 -69 0 -35 4 -49 14 -49 9 0 15 19 19 58 3 31 9 66 12 78 5 16 0
23 -22 33 -93 38 -271 51 -368 27z"/>
<path d="M12880 4741 c-140 -46 -207 -183 -151 -307 31 -68 72 -89 234 -120
106 -20 147 -45 165 -99 26 -79 -10 -163 -88 -202 -75 -38 -216 -27 -270 22
-10 9 -21 38 -25 66 -4 27 -10 49 -15 49 -8 0 -23 -157 -16 -169 12 -19 107
-36 196 -36 105 1 158 18 230 75 84 66 115 199 67 285 -30 54 -85 80 -220 104
-108 20 -127 27 -159 66 -24 27 -23 110 0 155 40 74 164 99 252 50 42 -24 45
-28 48 -73 2 -33 7 -47 18 -47 9 0 14 10 14 29 0 15 3 48 6 73 l6 45 -48 18
c-55 19 -205 29 -244 16z"/>
<path d="M3099 4736 c-9 -9 3 -86 12 -80 11 7 12 84 1 84 -5 0 -11 -2 -13 -4z"/>
<path d="M4888 4695 c3 -31 9 -45 19 -45 20 0 14 84 -7 88 -12 2 -14 -7 -12
-43z"/>
<path d="M4853 4690 c0 -25 2 -35 4 -22 2 12 2 32 0 45 -2 12 -4 2 -4 -23z"/>
<path d="M11606 4714 c-22 -21 -20 -67 2 -87 40 -36 95 -11 95 43 0 53 -61 81
-97 44z"/>
<path d="M15727 4712 c-34 -38 -9 -102 39 -102 25 0 38 10 53 37 30 57 -49
113 -92 65z"/>
<path d="M20002 4718 c3 -7 20 -14 39 -16 19 -2 40 -10 47 -19 15 -21 17 -758
2 -815 -13 -44 -51 -62 -102 -47 -18 5 -34 9 -35 9 -2 0 -3 -18 -3 -40 0 -38
2 -40 30 -40 68 0 152 69 194 159 20 43 21 67 26 414 6 407 2 387 73 387 20 0
37 5 37 10 0 6 -59 10 -156 10 -120 0 -155 -3 -152 -12z"/>
<path d="M21820 4710 c-11 -11 -20 -29 -20 -40 0 -27 35 -60 63 -60 50 0 76
70 39 103 -25 23 -58 21 -82 -3z"/>
<path d="M4218 4683 c7 -3 16 -2 19 1 4 3 -2 6 -13 5 -11 0 -14 -3 -6 -6z"/>
<path d="M23248 4633 l-38 -16 0 -84 0 -84 -45 -20 c-53 -23 -50 -39 6 -39
l39 0 0 -185 0 -185 29 -32 c25 -28 34 -32 83 -32 46 -1 60 3 91 29 19 17 36
33 36 38 1 4 -24 4 -54 1 -45 -6 -59 -4 -75 11 -18 17 -20 31 -20 191 l0 173
72 3 c59 2 73 6 76 20 3 15 -7 18 -70 20 l-73 3 3 103 c4 113 5 112 -60 85z"/>
<path d="M2700 4616 c0 -10 302 -207 308 -201 9 9 -5 19 -143 105 -147 92
-165 103 -165 96z"/>
<path d="M5145 4559 c-49 -33 -103 -66 -120 -74 -40 -20 -91 -62 -84 -69 6 -7
292 180 297 194 5 14 6 15 -93 -51z"/>
<path d="M2707 4477 c3 -61 8 -150 12 -197 5 -47 7 -87 5 -89 -2 -2 -22 8 -45
23 -22 15 -43 25 -47 22 -7 -7 -17 0 113 -81 61 -38 112 -72 115 -76 11 -14
152 -101 157 -96 2 3 1 97 -3 209 l-7 205 -121 76 c-66 42 -135 86 -152 97
l-30 20 3 -113z"/>
<path d="M5085 4489 l-140 -90 -5 -207 c-3 -114 -5 -208 -4 -210 1 -2 44 25
95 60 52 35 136 90 187 122 50 32 92 63 92 68 0 10 -6 7 -70 -36 -25 -16 -39
-23 -32 -14 22 28 47 399 27 397 -5 0 -73 -41 -150 -90z"/>
<path d="M2050 4534 c0 -16 97 -122 108 -118 8 2 36 4 63 4 27 0 49 4 49 10 0
14 -113 88 -144 94 -14 4 -37 8 -51 11 -14 3 -25 3 -25 -1z"/>
<path d="M2223 4528 c-30 -15 -29 -22 7 -48 39 -28 51 -19 37 25 -11 38 -12
39 -44 23z"/>
<path d="M5680 4505 c-17 -52 -9 -58 33 -28 l38 27 -23 18 c-32 24 -35 23 -48
-17z"/>
<path d="M5844 4531 c-40 -7 -174 -85 -174 -101 0 -5 28 -10 63 -12 61 -5 63
-4 95 31 43 45 76 91 65 90 -4 -1 -27 -5 -49 -8z"/>
<path d="M10164 4480 c-17 -6 -51 -28 -76 -50 -26 -22 -49 -40 -53 -40 -3 0
-3 21 1 46 8 53 21 51 -113 18 -80 -20 -96 -41 -35 -46 l37 -3 0 -205 0 -205
-37 -3 c-21 -2 -38 -7 -38 -13 0 -5 57 -9 135 -9 83 0 135 4 135 10 0 6 -12
10 -26 10 -14 0 -34 5 -45 10 -18 10 -19 23 -19 172 l0 160 38 38 c62 63 158
67 206 9 26 -30 26 -31 26 -225 l0 -194 90 0 c68 0 90 3 90 13 0 8 -17 18 -37
23 l-38 9 -6 186 c-5 154 -9 191 -24 216 -35 59 -139 95 -211 73z"/>
<path d="M10632 4469 c-79 -39 -111 -121 -77 -193 20 -42 49 -59 132 -81 144
-38 163 -50 163 -105 0 -72 -78 -118 -169 -101 -61 12 -94 40 -105 90 -5 23
-15 41 -22 41 -11 0 -14 -18 -14 -74 l0 -74 63 -11 c128 -22 204 -10 263 41
46 41 64 77 64 130 0 77 -32 103 -171 138 -46 12 -94 28 -106 35 -52 34 -32
124 32 145 76 25 175 -21 175 -81 0 -19 5 -29 15 -29 12 0 15 14 15 64 l0 64
-44 11 c-73 18 -165 14 -214 -10z"/>
<path d="M11184 4472 c-120 -42 -177 -127 -177 -264 -1 -103 35 -178 106 -222
98 -60 294 -40 332 35 18 34 12 36 -43 9 -60 -29 -143 -27 -198 5 -48 28 -94
107 -94 162 l0 33 139 0 c76 0 159 3 185 6 45 7 46 8 46 42 0 96 -60 179 -143
200 -62 16 -93 15 -153 -6z m115 -30 c19 -9 43 -33 53 -52 21 -40 24 -116 6
-122 -7 -3 -68 -3 -136 0 l-123 5 7 41 c10 62 39 111 76 129 43 21 75 21 117
-1z"/>
<path d="M12025 4481 c-128 -32 -204 -131 -205 -266 0 -209 192 -327 379 -234
95 48 150 136 151 243 0 85 -18 134 -70 187 -64 67 -160 93 -255 70z m91 -36
c110 -22 173 -263 101 -389 -24 -43 -76 -76 -120 -76 -15 0 -45 9 -67 20 -74
38 -110 120 -110 252 0 86 14 131 52 166 27 25 74 42 98 37 8 -2 29 -6 46 -10z"/>
<path d="M14105 4475 c-16 -8 -54 -19 -82 -26 -60 -14 -70 -29 -18 -29 24 0
37 -6 45 -19 11 -22 14 -579 4 -668 -7 -52 -7 -52 -48 -62 -33 -7 -14 -9 92
-10 82 -1 132 3 132 9 0 6 -12 10 -27 10 -51 0 -53 8 -60 155 l-6 138 24 -8
c13 -4 55 -10 92 -12 68 -5 68 -5 146 46 94 62 114 82 141 144 28 62 35 140
20 197 -15 56 -91 134 -140 143 -93 19 -153 2 -215 -62 -21 -22 -43 -41 -48
-41 -6 0 -7 23 -4 55 6 60 3 63 -48 40z m271 -74 c75 -34 110 -104 101 -202
-6 -71 -40 -135 -87 -167 -30 -20 -44 -23 -101 -20 -54 3 -73 9 -103 31 l-36
28 0 122 c0 143 11 171 81 205 54 27 91 27 145 3z"/>
<path d="M14845 4477 c-131 -43 -189 -126 -189 -273 -1 -97 38 -175 107 -218
98 -60 294 -40 332 35 9 16 14 29 12 29 -2 0 -23 -10 -48 -22 -59 -29 -140
-30 -194 -2 -49 26 -92 92 -101 157 l-7 47 164 0 c200 0 209 2 209 44 0 44
-19 106 -42 139 -43 60 -161 91 -243 64z m100 -31 c22 -10 41 -28 54 -55 23
-45 28 -116 9 -123 -7 -3 -69 -3 -137 0 l-123 5 6 39 c10 61 41 113 78 131 41
20 69 21 113 3z"/>
<path d="M15503 4478 c-19 -5 -50 -29 -77 -59 l-46 -51 0 57 c0 40 -4 55 -12
53 -7 -2 -50 -12 -95 -23 -91 -20 -114 -45 -43 -45 l40 0 -2 -207 -3 -208 -37
-3 c-25 -2 -38 -8 -38 -18 0 -11 25 -14 145 -14 122 0 145 2 145 15 0 11 -11
15 -37 15 -68 0 -68 1 -65 172 4 159 13 197 51 218 36 19 80 12 107 -17 13
-14 26 -24 28 -22 2 2 7 34 10 70 7 64 6 67 -16 71 -13 2 -37 1 -55 -4z"/>
<path d="M16185 4481 c-166 -41 -254 -219 -185 -378 43 -101 128 -155 239
-155 116 1 227 83 260 192 15 49 14 132 -1 184 -35 115 -182 189 -313 157z
m117 -47 c62 -31 101 -125 102 -244 1 -134 -64 -217 -161 -207 -89 9 -148 86
-163 214 -12 111 8 190 59 230 40 32 107 35 163 7z"/>
<path d="M16875 4471 c-24 -10 -52 -35 -70 -61 l-30 -44 -3 58 c-2 39 -7 56
-15 54 -7 -2 -49 -12 -94 -23 -91 -20 -114 -45 -43 -45 l40 0 -2 -207 -3 -208
-37 -3 c-25 -2 -38 -8 -38 -18 0 -11 25 -14 140 -14 118 0 140 2 140 15 0 9
-9 15 -24 15 -14 0 -36 4 -50 10 l-26 10 0 132 c0 73 5 149 10 169 22 80 104
108 156 52 13 -14 26 -24 28 -22 2 2 6 34 9 70 6 63 5 67 -16 73 -29 8 -26 8
-72 -13z"/>
<path d="M18200 4481 c-138 -45 -200 -130 -200 -275 1 -120 57 -210 153 -242
98 -32 256 -1 287 57 17 31 7 33 -42 8 -58 -31 -149 -32 -198 -3 -52 30 -92
93 -98 153 l-5 51 164 0 c90 0 175 3 188 7 22 6 23 9 18 60 -8 73 -42 132 -95
161 -45 25 -131 37 -172 23z m97 -41 c38 -23 61 -64 69 -123 8 -55 8 -54 -148
-49 l-118 4 0 37 c0 76 67 151 134 151 17 0 45 -9 63 -20z"/>
<path d="M19350 4479 c-25 -5 -65 -19 -90 -32 -41 -21 -45 -26 -48 -65 -4 -53
11 -54 37 -3 11 21 27 41 36 45 25 9 101 7 129 -4 33 -12 66 -66 66 -107 0
-29 -3 -33 -26 -33 -41 0 -156 -30 -204 -53 -61 -30 -90 -76 -90 -143 0 -66
31 -108 93 -125 58 -15 93 -5 159 46 32 25 60 45 62 45 3 0 6 -19 8 -42 l3
-43 78 -3 c62 -2 77 0 77 12 0 9 -11 16 -27 18 l-28 3 -5 190 c-6 215 -13 241
-78 274 -49 24 -97 31 -152 20z m140 -310 c0 -77 -1 -81 -31 -108 -31 -28 -88
-51 -128 -51 -38 0 -71 43 -71 92 0 71 34 103 142 132 91 25 88 27 88 -65z"/>
<path d="M22225 4451 c-84 -47 -109 -72 -130 -130 -17 -50 -20 -176 -4 -218
37 -100 118 -153 234 -153 83 0 155 21 174 51 19 32 2 39 -59 23 -152 -40
-261 63 -260 245 1 115 55 175 157 174 70 0 115 -27 127 -76 10 -38 26 -50 27
-19 0 9 4 39 8 66 8 48 8 48 -25 62 -18 8 -66 14 -106 14 -66 0 -80 -4 -143
-39z"/>
<path d="M22771 4479 c-24 -5 -65 -19 -90 -32 -42 -22 -46 -28 -49 -66 -4 -50
19 -57 38 -11 7 17 22 37 34 45 26 19 109 19 145 0 31 -16 61 -69 61 -109 0
-23 -4 -26 -33 -26 -42 0 -168 -35 -219 -61 -28 -14 -45 -33 -59 -62 -38 -84
-16 -156 57 -188 67 -30 112 -20 190 42 l63 50 3 -48 3 -48 78 -3 c64 -2 77 0
77 13 0 9 -9 15 -24 15 -13 0 -28 6 -34 13 -6 7 -12 87 -14 199 -3 170 -5 189
-24 214 -39 53 -122 79 -203 63z m139 -307 c0 -72 -2 -80 -27 -105 -32 -30
-91 -57 -126 -57 -14 0 -36 9 -51 21 -21 17 -26 29 -26 68 0 75 33 106 142
135 91 25 88 27 88 -62z"/>
<path d="M24483 4478 c-19 -5 -49 -28 -77 -60 l-46 -53 0 59 c0 56 -1 58 -22
52 -13 -4 -53 -14 -90 -24 -75 -18 -89 -39 -30 -44 l37 -3 3 -185 c1 -102 0
-195 -3 -207 -4 -18 -12 -23 -40 -23 -24 0 -35 -5 -35 -15 0 -13 22 -15 140
-15 118 0 140 2 140 15 0 11 -11 15 -37 15 -67 0 -68 2 -68 167 0 121 4 154
18 180 32 60 100 72 143 26 13 -14 26 -24 29 -22 2 3 7 34 11 70 6 64 6 66
-17 71 -13 2 -38 1 -56 -4z"/>
<path d="M24822 4480 c-24 -5 -62 -20 -85 -32 -38 -21 -42 -27 -45 -66 -2 -33
0 -42 12 -42 9 0 16 6 16 14 0 28 40 64 80 71 80 13 147 -31 157 -104 5 -36 3
-40 -18 -45 -13 -2 -52 -10 -87 -17 -90 -17 -177 -61 -196 -98 -9 -17 -16 -55
-16 -85 0 -47 4 -61 29 -88 25 -28 35 -32 93 -36 l64 -4 67 51 c36 28 69 51
72 51 3 0 5 -20 5 -45 l0 -46 77 3 c50 2 78 7 81 16 2 8 -7 12 -27 12 -16 0
-33 5 -37 11 -4 6 -6 82 -5 168 0 86 -3 173 -8 194 -22 90 -118 139 -229 117z
m136 -317 l-3 -87 -41 -29 c-25 -18 -60 -31 -87 -34 -39 -5 -49 -2 -71 20 -49
50 -26 145 42 174 44 19 120 41 145 42 16 1 17 -8 15 -86z"/>
<path d="M9445 4467 c-100 -39 -156 -105 -175 -209 -22 -113 30 -225 130 -282
134 -76 313 -12 379 134 15 32 21 66 21 118 0 157 -96 252 -255 251 -38 0 -84
-6 -100 -12z m147 -33 c60 -31 99 -122 101 -239 2 -68 -2 -88 -23 -129 -60
-116 -195 -112 -264 7 -47 80 -57 228 -20 298 41 80 123 104 206 63z"/>
<path d="M11593 4456 c-88 -22 -107 -43 -45 -48 l37 -3 0 -320 c0 -287 -2
-323 -18 -352 -19 -35 -44 -53 -76 -53 -23 0 -26 -7 -12 -28 15 -25 84 3 128
51 45 49 58 82 73 182 11 81 14 596 3 593 -5 0 -45 -10 -90 -22z"/>
<path d="M13400 4466 c-20 -8 -55 -17 -78 -21 -56 -9 -56 -33 1 -37 l42 -3 5
-175 c5 -188 12 -216 61 -253 30 -22 101 -33 154 -23 22 4 55 25 88 54 l52 46
3 -47 3 -47 90 0 c71 0 89 3 89 14 0 10 -13 16 -37 18 l-38 3 -3 244 c-2 226
-4 243 -20 236 -9 -4 -52 -14 -94 -23 -89 -19 -107 -42 -33 -42 l45 0 0 -150
0 -149 -37 -40 c-64 -67 -158 -76 -209 -20 -17 19 -19 42 -22 225 -3 221 0
212 -62 190z"/>
<path d="M15713 4456 c-91 -23 -108 -43 -40 -48 l42 -3 3 -166 c1 -91 -1 -183
-6 -205 -7 -36 -11 -39 -45 -42 -24 -2 -37 -8 -37 -18 0 -11 24 -14 135 -14
111 0 135 3 135 14 0 10 -13 16 -37 18 l-38 3 -3 243 c-2 185 -5 242 -15 240
-6 0 -49 -10 -94 -22z"/>
<path d="M20470 4466 c-20 -8 -55 -17 -78 -21 -56 -9 -58 -35 -3 -35 27 0 41
-5 45 -16 4 -9 6 -90 5 -179 -1 -188 8 -222 64 -248 36 -18 92 -22 146 -11 19
4 56 28 87 56 l54 50 0 -51 0 -51 95 0 c76 0 95 3 95 14 0 10 -14 16 -42 18
l-43 3 -3 243 c-2 188 -5 242 -15 239 -6 -3 -47 -14 -89 -24 -86 -20 -102 -40
-35 -45 l42 -3 3 -148 3 -149 -39 -38 c-65 -66 -158 -74 -208 -19 -17 19 -19
40 -19 225 0 225 4 215 -65 190z"/>
<path d="M21850 4466 c-20 -8 -55 -17 -78 -21 -56 -9 -58 -35 -2 -35 l40 0 -2
-207 -3 -208 -37 -3 c-25 -2 -38 -8 -38 -18 0 -11 24 -14 135 -14 113 0 135 2
135 15 0 10 -10 15 -34 15 -58 0 -59 6 -54 260 6 256 10 242 -62 216z"/>
<path d="M23610 4469 c-14 -6 -46 -15 -72 -20 -61 -13 -66 -39 -9 -39 l39 0 4
-177 c3 -132 8 -187 20 -214 40 -92 206 -92 292 0 17 17 33 31 38 31 4 0 8
-20 8 -45 l0 -45 90 0 c72 0 90 3 90 14 0 10 -13 16 -37 18 -52 4 -55 25 -49
277 6 201 5 213 -11 206 -10 -4 -53 -14 -95 -23 -87 -18 -103 -39 -35 -44 l42
-3 3 -147 3 -147 -38 -39 c-64 -68 -158 -77 -209 -21 -17 19 -19 42 -22 225
-3 216 -2 213 -52 193z"/>
<path d="M2633 4039 c23 -588 196 -1097 495 -1451 36 -43 72 -78 80 -78 29 0
157 89 217 150 l60 60 55 -58 c57 -61 146 -143 192 -176 22 -16 25 -23 17 -43
-14 -37 -12 -43 26 -59 36 -15 77 -68 89 -116 3 -16 13 -28 21 -28 8 0 15 -3
15 -7 0 -5 -7 -89 -15 -188 -8 -99 -15 -190 -15 -203 0 -19 -4 -21 -25 -16
-25 6 -25 5 -25 -54 0 -49 3 -62 18 -66 10 -3 71 -7 136 -7 143 -2 151 3 140
88 l-6 53 53 0 c85 0 89 8 77 130 -3 24 0 25 74 35 74 10 76 11 61 30 -26 35
-95 177 -144 300 l-49 120 43 35 c23 19 80 73 127 119 76 75 77 77 13 18 -83
-76 -229 -193 -321 -257 l-62 -44 -33 17 c-49 27 -192 136 -289 221 -149 130
-307 325 -401 496 -105 190 -203 545 -224 807 -3 45 -9 86 -12 91 -3 5 -69 49
-146 97 -77 49 -164 104 -194 123 l-54 35 6 -174z m1506 -1897 c30 -129 37
-171 26 -160 -6 6 -75 283 -75 301 0 37 22 -25 49 -141z m-64 -120 c13 -130
15 -186 7 -194 -14 -14 -18 16 -32 212 -12 187 -12 200 -1 180 5 -8 16 -97 26
-198z"/>
<path d="M5125 4089 c-93 -60 -175 -112 -182 -117 -6 -4 -18 -68 -27 -146 -21
-182 -49 -314 -97 -460 -67 -206 -200 -450 -319 -588 l-42 -48 29 -33 c39 -46
124 -116 189 -156 66 -41 66 -42 148 55 295 348 468 870 490 1472 3 97 1 132
-7 131 -7 0 -88 -50 -182 -110z"/>
<path d="M483 3808 c31 -821 380 -1633 965 -2240 558 -578 1268 -933 2087
-1044 164 -23 634 -26 800 -6 811 97 1519 437 2080 997 626 624 985 1437 1022
2313 l6 152 -170 0 -170 0 -11 -176 c-45 -677 -269 -1262 -683 -1784 -107
-135 -354 -382 -489 -489 -479 -380 -1027 -605 -1640 -672 -63 -7 -207 -13
-320 -13 -113 0 -257 6 -320 13 -612 67 -1160 292 -1640 672 -135 107 -384
355 -489 488 -412 520 -639 1111 -683 1776 l-12 185 -170 0 -169 0 6 -172z"/>
<path d="M3538 3823 c244 -2 640 -2 880 0 240 1 41 2 -443 2 -484 0 -681 -1
-437 -2z"/>
<path d="M3932 3765 c-29 -13 -72 -38 -97 -55 -40 -28 -45 -35 -45 -70 0 -50
17 -61 44 -27 22 27 63 47 97 47 31 0 22 -16 -21 -35 l-39 -18 -3 -80 -3 -81
-35 -9 -35 -10 50 -23 c28 -13 55 -22 60 -21 6 2 12 17 15 33 4 21 11 29 25
29 19 0 20 -8 23 -110 3 -114 10 -137 37 -115 11 9 15 31 15 81 l0 69 33 -7
c19 -3 43 -19 60 -39 23 -28 36 -34 67 -34 43 0 70 8 70 20 0 5 -13 21 -28 37
-25 24 -30 39 -36 103 -13 146 -47 277 -81 314 -32 35 -99 36 -173 1z"/>
<path d="M15400 3155 l0 -55 4865 0 4865 0 0 55 0 55 -4865 0 -4865 0 0 -55z"/>
<path d="M3300 3145 c0 -3 14 -31 32 -63 62 -111 152 -234 239 -325 l88 -92 1
116 0 116 63 -9 c34 -4 83 -17 109 -28 27 -11 69 -20 100 -20 29 0 64 -3 78
-7 l25 -7 -25 -7 c-19 -5 -15 -7 21 -8 32 -1 49 -6 53 -16 6 -18 29 -19 55 -3
27 16 55 3 48 -24 -4 -13 0 -26 10 -33 13 -10 13 -16 3 -34 -14 -27 -7 -51 15
-51 8 0 15 -9 15 -21 0 -18 5 -16 45 17 60 49 200 211 262 304 53 79 113 182
113 193 0 4 -304 7 -675 7 -371 0 -675 -2 -675 -5z m690 -85 c0 -28 -2 -30
-40 -30 -38 0 -40 2 -40 30 0 28 2 30 40 30 38 0 40 -2 40 -30z m100 -1 c0
-29 -1 -30 -42 -27 -39 3 -43 6 -46 31 -3 26 -2 27 42 27 45 0 46 -1 46 -31z
m-150 -69 c0 -28 -2 -30 -40 -30 -38 0 -40 2 -40 30 0 28 2 30 40 30 38 0 40
-2 40 -30z m100 0 c0 -29 -2 -30 -45 -30 -43 0 -45 1 -45 30 0 29 2 30 45 30
43 0 45 -1 45 -30z m100 0 c0 -29 -2 -30 -45 -30 -43 0 -45 1 -45 30 0 29 2
30 45 30 43 0 45 -1 45 -30z m180 -205 c0 -18 -5 -25 -20 -25 -13 0 -20 7 -20
19 0 11 -6 22 -12 24 -7 3 2 6 20 6 28 1 32 -2 32 -24z"/>
<path d="M3910 2730 c0 -19 3 -21 12 -12 9 9 9 15 0 24 -9 9 -12 7 -12 -12z"/>
<path d="M3985 2737 c-4 -10 -5 -21 -1 -24 10 -10 18 4 13 24 -4 17 -4 17 -12
0z"/>
<path d="M4065 2737 c-4 -10 -5 -21 -1 -24 10 -10 18 4 13 24 -4 17 -4 17 -12
0z"/>
<path d="M3911 2644 c-1 -25 -29 -40 -45 -24 -13 13 -56 13 -56 1 0 -5 12 -19
26 -30 24 -18 41 -21 141 -21 83 0 122 4 143 15 34 18 40 45 10 45 -12 0 -20
-7 -20 -16 0 -14 -3 -14 -15 -4 -8 7 -15 21 -15 31 0 30 -17 22 -23 -11 -9
-44 -57 -34 -57 12 0 26 -18 22 -22 -4 -5 -34 -50 -32 -59 2 -6 22 -7 23 -8 4z"/>
<path d="M10791 2641 c-31 -6 -36 -12 -77 -103 -25 -59 -39 -100 -33 -104 6
-3 12 -4 13 -3 53 65 156 203 156 210 0 10 -7 10 -59 0z"/>
<path d="M11870 2631 c-8 -5 -40 -14 -70 -21 -82 -18 -92 -21 -85 -28 4 -4 14
-7 23 -8 10 -1 27 -2 40 -3 l22 -1 -2 -352 -3 -353 -37 -3 c-21 -2 -38 -7 -38
-13 0 -5 58 -9 137 -9 84 0 133 4 128 9 -6 5 -23 11 -40 13 l-30 3 -3 388 c-2
401 -2 400 -42 378z"/>
<path d="M14185 2619 c-33 -10 -72 -18 -87 -18 -40 -1 -35 -21 5 -21 52 0 57
-12 57 -138 0 -105 -1 -114 -17 -107 -42 16 -121 28 -153 22 -55 -11 -181 -88
-207 -126 -33 -49 -46 -107 -41 -181 10 -141 91 -220 226 -220 55 0 61 2 117
50 33 28 63 50 67 50 4 0 8 -20 8 -45 l0 -45 93 1 c86 1 90 2 54 13 -21 6 -42
18 -48 26 -5 9 -9 166 -8 383 0 203 -1 370 -3 371 -1 1 -30 -6 -63 -15z m-118
-324 c20 -9 51 -26 68 -40 l32 -23 -4 -114 c-5 -131 -13 -157 -60 -198 -28
-25 -42 -30 -87 -30 -123 0 -198 123 -166 274 24 116 118 172 217 131z"/>
<path d="M16808 2635 c-2 -3 -38 -14 -78 -24 -41 -10 -76 -24 -78 -30 -2 -6 5
-10 15 -9 10 0 28 0 41 0 l22 -2 -2 -352 -3 -353 -37 -3 c-21 -2 -38 -7 -38
-13 0 -5 56 -9 130 -9 80 0 130 4 130 10 0 6 -16 10 -35 10 -29 0 -36 4 -41
26 -4 14 -5 190 -2 390 4 351 2 385 -24 359z"/>
<path d="M11175 2614 c-27 -7 -62 -16 -77 -19 -42 -8 -34 -23 15 -27 l42 -3 0
-378 c0 -207 2 -377 4 -377 3 0 15 9 27 21 l22 20 41 -20 c27 -14 59 -21 98
-21 63 0 106 19 196 88 113 87 140 273 55 377 -39 47 -82 65 -153 65 -65 0
-104 -17 -157 -68 l-38 -36 0 197 c0 152 -3 197 -12 196 -7 -1 -35 -7 -63 -15z
m295 -356 c60 -41 75 -71 78 -158 5 -100 -24 -174 -82 -210 -47 -28 -125 -25
-179 9 l-37 23 0 137 c0 133 1 139 25 165 53 57 139 72 195 34z"/>
<path d="M18708 2625 c-3 -3 -36 -11 -74 -18 -78 -15 -99 -37 -34 -37 l41 0
-3 -375 c-2 -267 0 -375 8 -375 6 0 19 9 28 19 18 19 18 19 59 -2 91 -47 191
-21 305 79 137 120 118 367 -31 423 -16 6 -52 11 -81 11 -56 0 -100 -24 -155
-84 -14 -14 -28 -26 -33 -26 -5 0 -6 83 -2 195 6 169 5 195 -8 195 -8 0 -17
-2 -20 -5z m260 -372 c42 -31 64 -78 69 -146 7 -83 -10 -140 -56 -190 -33 -35
-44 -41 -93 -45 -61 -5 -128 21 -148 57 -5 11 -10 71 -10 133 0 130 13 163 77
198 47 25 122 22 161 -7z"/>
<path d="M15560 2605 c-208 -59 -323 -216 -307 -423 18 -243 245 -404 515
-365 111 17 190 48 198 79 4 14 5 27 2 29 -2 2 -28 -8 -58 -23 -50 -25 -65
-27 -170 -27 -105 0 -120 3 -172 28 -168 82 -242 314 -160 500 55 124 212 197
359 167 112 -24 153 -58 153 -131 0 -56 17 -28 30 47 7 48 8 80 2 86 -37 37
-297 59 -392 33z"/>
<path d="M8450 2586 c0 -10 16 -17 45 -22 25 -3 47 -10 50 -14 4 -7 8 -458 5
-652 0 -24 -4 -27 -50 -33 -97 -13 -48 -25 105 -25 151 0 200 11 111 24 -26 4
-47 13 -50 22 -8 21 -5 601 3 639 6 27 11 31 61 39 112 17 211 -29 225 -107
22 -117 -66 -207 -202 -207 -24 0 -43 -3 -43 -7 0 -5 38 -56 83 -114 45 -58
114 -149 152 -203 l70 -96 74 2 c80 3 101 18 49 33 -26 8 -58 43 -160 179 -71
92 -128 171 -128 175 0 4 21 13 48 19 69 19 118 57 147 115 30 62 31 97 4 153
-15 33 -32 49 -72 68 -50 26 -54 26 -289 26 -200 0 -238 -2 -238 -14z"/>
<path d="M12144 2575 c-18 -19 -23 -31 -19 -48 20 -67 118 -60 118 8 0 30 -33
65 -60 65 -7 0 -25 -11 -39 -25z"/>
<path d="M19300 2580 c-24 -24 -25 -48 -4 -78 19 -27 64 -29 87 -4 24 26 21
68 -5 86 -30 21 -54 20 -78 -4z"/>
<path d="M9399 2346 c-134 -48 -197 -148 -187 -295 10 -130 77 -208 198 -231
86 -16 231 26 245 71 10 30 3 31 -49 8 -110 -48 -222 -14 -270 83 -14 28 -26
67 -26 85 l0 33 163 1 c89 1 173 4 187 8 23 7 25 12 23 59 -3 61 -32 123 -70
150 -61 42 -144 53 -214 28z m121 -44 c33 -25 52 -66 58 -124 l5 -48 -137 0
-136 0 0 38 c0 55 38 123 80 145 41 21 92 17 130 -11z"/>
<path d="M9907 2354 c-4 -4 -39 -16 -80 -28 -73 -21 -93 -40 -47 -43 14 0 31
-2 38 -2 9 -1 12 -77 12 -345 0 -189 -3 -351 -6 -360 -4 -10 -18 -16 -40 -16
-21 0 -34 -5 -34 -12 0 -10 33 -13 130 -14 99 0 130 3 130 12 0 8 -16 14 -37
16 -47 4 -51 16 -52 172 l-1 118 23 -7 c42 -13 127 -23 149 -17 13 3 62 31
109 63 78 52 88 62 114 121 77 168 2 326 -161 336 -85 6 -102 0 -167 -53 -31
-25 -57 -45 -59 -45 -2 0 -1 25 0 55 4 50 -4 66 -21 49z m239 -83 c74 -34 110
-104 101 -201 -15 -171 -160 -249 -292 -158 l-35 23 0 125 c0 132 6 154 54
190 55 41 112 48 172 21z"/>
<path d="M12568 2331 c-133 -68 -168 -121 -168 -256 0 -120 38 -188 131 -235
86 -44 275 -19 294 40 10 30 5 31 -45 14 -67 -24 -141 -15 -187 22 -47 38 -72
87 -86 167 -9 55 -8 71 9 122 26 80 54 100 144 100 86 0 123 -23 128 -78 4
-52 20 -46 27 11 3 26 8 57 11 70 6 32 -45 52 -133 52 -55 0 -79 -6 -125 -29z"/>
<path d="M14619 2346 c-26 -7 -68 -28 -95 -47 -153 -108 -132 -388 35 -462
108 -48 311 -1 311 73 0 6 -18 1 -41 -11 -23 -11 -65 -23 -93 -26 -101 -9
-194 71 -204 176 l-5 51 164 0 c90 0 174 3 187 6 22 6 23 10 17 58 -4 28 -12
62 -17 76 -16 44 -70 90 -122 105 -59 18 -76 18 -137 1z m111 -44 c35 -26 60
-79 60 -129 l0 -43 -135 0 -135 0 0 38 c0 41 28 110 53 130 41 35 112 36 157
4z"/>
<path d="M16261 2350 c-136 -29 -219 -144 -209 -289 7 -101 56 -178 143 -224
55 -29 162 -30 226 -1 98 45 161 144 162 254 2 82 -15 131 -62 183 -60 67
-161 97 -260 77z m120 -52 c21 -14 45 -46 64 -83 27 -53 30 -70 30 -150 0
-105 -20 -155 -76 -193 -42 -29 -111 -26 -157 7 -79 56 -119 251 -74 354 37
84 138 114 213 65z"/>
<path d="M17213 2350 c-92 -19 -177 -88 -204 -166 -7 -22 -13 -70 -13 -109 0
-58 5 -79 29 -125 103 -190 362 -184 470 12 26 46 30 63 30 133 0 90 -15 131
-68 185 -58 59 -157 88 -244 70z m107 -49 c56 -29 93 -111 98 -217 7 -132 -38
-217 -121 -231 -51 -8 -82 2 -127 43 -51 46 -74 113 -74 219 -1 95 21 155 68
185 40 25 110 26 156 1z"/>
<path d="M10568 2345 c-2 -3 -38 -14 -78 -24 -83 -21 -100 -38 -43 -43 l38 -3
5 -185 c4 -124 10 -193 18 -208 23 -40 71 -62 135 -62 69 0 111 18 157 65 19
19 38 35 42 35 4 0 8 -20 8 -45 l0 -45 90 0 c88 0 126 16 53 22 l-38 3 -3 244
-2 243 -28 -7 c-15 -4 -54 -12 -86 -19 -73 -15 -84 -34 -24 -38 l43 -3 3 -149
3 -149 -45 -43 c-34 -32 -56 -44 -89 -49 -59 -9 -111 15 -126 57 -6 18 -11
111 -11 219 0 169 -4 202 -22 184z"/>
<path d="M12207 2344 c-3 -3 -36 -14 -73 -24 -78 -20 -93 -37 -37 -42 l38 -3
3 -194 c3 -210 0 -221 -49 -221 -16 0 -29 -4 -29 -10 0 -6 50 -10 130 -10 74
0 130 4 130 9 0 6 -17 11 -37 13 -52 4 -55 25 -49 276 5 172 3 212 -7 212 -8
0 -16 -3 -20 -6z"/>
<path d="M13060 2341 c-14 -4 -44 -18 -67 -30 -40 -20 -43 -24 -43 -61 0 -51
12 -51 35 1 21 45 45 59 106 59 75 0 129 -49 129 -117 0 -27 -3 -28 -84 -44
-170 -33 -236 -84 -236 -182 0 -65 21 -101 70 -121 70 -28 122 -16 190 43 l35
31 -40 -20 c-89 -45 -155 -14 -155 72 0 29 7 54 19 69 19 24 110 61 179 73
l33 6 -5 -88 c-6 -113 -6 -174 0 -184 7 -11 154 -10 154 1 0 5 -12 11 -27 13
l-28 3 -5 192 c-5 209 -8 218 -73 267 -30 22 -140 32 -187 17z"/>
<path d="M17730 2338 c-14 -5 -52 -15 -84 -22 -73 -15 -84 -34 -24 -38 l43 -3
3 -180 c3 -209 1 -225 -32 -225 -31 0 -56 -10 -56 -21 0 -5 61 -9 135 -9 82 0
135 4 135 10 0 5 -12 12 -27 16 -16 3 -34 7 -40 10 -16 4 -18 335 -3 365 13
24 81 59 115 59 39 0 83 -26 100 -60 13 -24 15 -62 13 -197 l-3 -168 -34 -5
c-19 -3 -36 -11 -39 -17 -3 -10 28 -13 133 -13 105 0 136 3 133 13 -3 6 -19
13 -37 15 -45 5 -51 28 -51 204 l0 150 33 33 c83 83 195 44 213 -72 4 -26 4
-114 1 -195 l-5 -148 89 0 c53 0 89 4 89 10 0 6 -13 10 -30 10 -19 0 -33 7
-40 19 -6 11 -10 91 -10 188 0 145 -3 173 -19 203 -34 66 -132 98 -208 69 -15
-5 -46 -28 -69 -50 l-40 -39 -23 30 c-35 48 -79 70 -139 70 -62 0 -83 -9 -134
-58 l-38 -36 0 47 c0 50 -5 54 -50 35z"/>
<path d="M19368 2345 c-2 -3 -38 -14 -78 -24 -83 -21 -100 -38 -43 -43 l38 -3
0 -205 0 -205 -37 -3 c-21 -2 -38 -7 -38 -13 0 -5 57 -9 135 -9 83 0 135 4
135 10 0 6 -15 10 -34 10 -59 0 -60 6 -52 260 5 189 4 230 -7 230 -8 0 -16 -2
-19 -5z"/>
<path d="M19696 2330 c-66 -26 -86 -46 -86 -87 0 -46 23 -42 45 8 21 45 45 59
106 59 75 0 129 -49 129 -118 0 -28 -2 -30 -56 -37 -59 -7 -140 -32 -193 -59
-45 -24 -71 -71 -71 -129 0 -91 42 -132 135 -132 48 0 59 5 114 48 34 26 63
47 65 47 3 0 6 -19 8 -42 l3 -43 78 -3 c48 -2 77 1 77 8 0 5 -10 10 -23 10
-44 0 -47 14 -47 200 0 150 -3 180 -18 210 -39 74 -160 101 -266 60z m194
-290 c0 -75 -2 -83 -27 -107 -59 -55 -140 -69 -180 -31 -31 29 -32 104 -3 141
18 22 91 54 165 70 45 10 45 10 45 -73z"/>
<path d="M3745 1951 l-15 -30 31 9 c39 12 43 15 36 35 -10 24 -35 17 -52 -14z"/>
</g>
</svg>
